<?xml version="1.0" standalone="no"?>
<!DOCTYPE svg PUBLIC "-//W3C//DTD SVG 20010904//EN"
 "http://www.w3.org/TR/2001/REC-SVG-20010904/DTD/svg10.dtd">
<svg version="1.0" xmlns="http://www.w3.org/2000/svg"
 width="512.000000pt" height="512.000000pt" viewBox="0 0 512.000000 512.000000"
 preserveAspectRatio="xMidYMid meet">
<metadata>
Created by potrace 1.16, written by Peter Selinger 2001-2019
</metadata>
<g transform="translate(0.000000,512.000000) scale(0.100000,-0.100000)"
fill="#000000" stroke="none">
<path d="M1890 4403 c-346 -52 -568 -116 -789 -227 -234 -118 -300 -181 -406
-394 -267 -535 -468 -1356 -491 -2007 l-7 -170 51 -76 c123 -182 344 -346 612
-454 279 -112 647 -185 713 -142 22 14 202 253 213 282 3 6 -28 20 -73 33
-211 62 -440 165 -594 267 -106 71 -139 104 -139 142 0 55 48 103 103 103 12
0 60 -27 106 -60 259 -186 668 -321 1094 -361 180 -17 553 -7 723 19 376 58
737 196 963 368 24 19 55 34 68 34 82 0 131 -92 83 -153 -29 -37 -186 -140
-300 -197 -116 -58 -296 -129 -408 -161 -49 -13 -81 -27 -78 -34 9 -26 189
-266 209 -280 42 -30 208 -12 434 46 400 102 732 306 895 548 l51 76 -7 170
c-23 622 -209 1409 -458 1935 -115 244 -175 317 -343 415 -223 131 -550 235
-862 275 -118 15 -151 2 -182 -70 -12 -27 -21 -55 -21 -63 0 -9 33 -20 108
-36 133 -28 288 -72 412 -118 134 -49 366 -170 395 -205 47 -56 21 -141 -48
-153 -27 -5 -59 7 -187 73 -180 91 -312 140 -501 187 -386 95 -735 109 -1124
45 -265 -44 -485 -116 -715 -232 -128 -66 -160 -78 -187 -73 -69 13 -95 97
-47 154 35 42 313 178 469 230 110 37 316 90 408 106 44 7 45 17 16 86 -30 70
-67 86 -159 72z m115 -1564 c160 -60 269 -267 236 -450 -44 -251 -273 -399
-473 -307 -155 71 -250 264 -220 443 40 242 255 390 457 314z m1330 0 c76 -28
156 -104 196 -184 62 -126 62 -259 0 -391 -83 -177 -276 -258 -434 -181 -156
77 -248 261 -218 440 41 246 252 392 456 316z"/>
</g>
</svg>
