<?xml version="1.0" standalone="no"?>
<!DOCTYPE svg PUBLIC "-//W3C//DTD SVG 20010904//EN"
 "http://www.w3.org/TR/2001/REC-SVG-20010904/DTD/svg10.dtd">
<svg version="1.0" xmlns="http://www.w3.org/2000/svg"
 width="50.000000pt" height="50.000000pt" viewBox="0 0 50.000000 50.000000"
 preserveAspectRatio="xMidYMid meet">
<metadata>
Created by potrace 1.16, written by Peter Selinger 2001-2019
</metadata>
<g transform="translate(0.000000,50.000000) scale(0.009766,-0.009766)"
fill="#000000" stroke="none">
<path d="M2390 5109 c-163 -20 -380 -88 -510 -161 -184 -103 -369 -266 -483
-425 -115 -161 -200 -358 -244 -563 -28 -130 -25 -461 5 -632 105 -589 396
-1260 883 -2035 190 -302 430 -642 469 -663 30 -16 85 -12 112 9 28 23 144
183 295 411 578 871 929 1641 1045 2288 30 170 33 491 5 622 -125 585 -552
1013 -1128 1130 -119 24 -335 34 -449 19z m369 -949 c89 -32 203 -111 263
-184 89 -106 148 -262 148 -391 0 -221 -144 -449 -341 -543 -103 -49 -168 -65
-269 -65 -280 0 -519 190 -590 469 -24 92 -25 164 -5 259 48 227 218 406 445
470 81 22 265 15 349 -15z"/>
<path d="M1540 1628 c-747 -124 -1195 -309 -1372 -566 -67 -97 -86 -234 -47
-337 132 -354 803 -609 1854 -707 191 -18 991 -18 1180 0 876 83 1489 275
1744 547 170 182 165 398 -12 579 -184 187 -581 349 -1092 445 -150 28 -288
51 -291 47 -1 0 -41 -68 -89 -151 -203 -348 -525 -832 -638 -961 -73 -83 -189
-119 -289 -90 -82 24 -130 65 -230 199 -171 231 -488 723 -609 944 -19 35 -38
62 -44 62 -5 -1 -35 -6 -65 -11z"/>
</g>
</svg>
