<?xml version="1.0" standalone="no"?>
<!DOCTYPE svg PUBLIC "-//W3C//DTD SVG 20010904//EN"
 "http://www.w3.org/TR/2001/REC-SVG-20010904/DTD/svg10.dtd">
<svg version="1.0" xmlns="http://www.w3.org/2000/svg"
 width="512.000000pt" height="512.000000pt" viewBox="0 0 512.000000 512.000000"
 preserveAspectRatio="xMidYMid meet">
<metadata>
Created by potrace 1.16, written by Peter Selinger 2001-2019
</metadata>
<g transform="translate(0.000000,512.000000) scale(0.100000,-0.100000)"
fill="#000000" stroke="none">
<path d="M0 2560 l0 -1850 2560 0 2560 0 0 1850 0 1850 -2560 0 -2560 0 0
-1850z m1501 509 l1059 -600 1061 601 c583 330 1067 604 1075 607 13 5 14 -11
12 -107 l-3 -112 -1072 -608 -1073 -608 -1072 608 -1073 608 -3 112 c-2 100
-1 112 13 106 9 -3 493 -276 1076 -607z"/>
</g>
</svg>
